<svg width="24" height="24" viewBox="0 0 24 24" fill="none" xmlns="http://www.w3.org/2000/svg">
<path fill-rule="evenodd" clip-rule="evenodd" d="M13.4999 4.49998H10.1249V19.5H13.4999V18H11.9999V17.25H13.4999V16.125H12.7499V15.375H13.4999V14.25H12.7499V13.5H13.4999V12.375H11.9999V11.625H13.4999V10.5H12.7499V9.74998H13.4999V8.62498H12.7499V7.87498H13.4999V6.74998H11.9999V5.99998H13.4999V4.49998Z" fill="#577BFE"/>
<path fill-rule="evenodd" clip-rule="evenodd" d="M15.3749 13.5C14.9607 13.5 14.6249 13.8358 14.6249 14.25V16.125H17.2499V14.25C17.2499 13.8358 16.9142 13.5 16.4999 13.5H15.3749ZM17.2499 16.875H14.6249V18.75C14.6249 19.1642 14.9607 19.5 15.3749 19.5H16.4999C16.9142 19.5 17.2499 19.1642 17.2499 18.75V16.875Z" fill="#577BFE"/>
<path fill-rule="evenodd" clip-rule="evenodd" d="M15.3749 14.25V15.375H16.4999V14.25H15.3749ZM17.2499 14.25C17.2499 13.8358 16.9142 13.5 16.4999 13.5H15.3749C14.9607 13.5 14.6249 13.8358 14.6249 14.25V16.125H17.2499V14.25ZM14.6249 16.875H17.2499V18.75C17.2499 19.1642 16.9142 19.5 16.4999 19.5H15.3749C14.9607 19.5 14.6249 19.1642 14.6249 18.75V16.875ZM16.4999 17.625H15.3749V18.75H16.4999V17.625Z" fill="#577BFE"/>
<path fill-rule="evenodd" clip-rule="evenodd" d="M7.87494 7.12502C7.2536 7.12502 6.74994 7.62868 6.74994 8.25002V9.37502H8.99994V8.25002C8.99994 7.62868 8.49628 7.12502 7.87494 7.12502ZM8.99994 10.125H6.74994V18L7.87494 19.5L8.99994 18V10.125Z" fill="#577BFE"/>
<path d="M19.44 4L18.92 5.84572L17.88 6.38858L18.92 6.93144L19.44 8.56001L19.96 6.93144L21 6.38858L19.96 5.84572L19.44 4Z" fill="#577BFE"/>
<path d="M15.96 5.43999L15.72 6.39999L15 6.63999L15.72 6.87999L15.96 7.83999L16.2 6.87999L16.92 6.63999L16.2 6.39999L15.96 5.43999Z" fill="#577DFB"/>
</svg>
