<svg width="24" height="24" viewBox="0 0 24 24" fill="none" xmlns="http://www.w3.org/2000/svg">
<path fill-rule="evenodd" clip-rule="evenodd" d="M19.4616 10.1377C19.4487 11.0125 19.4373 11.783 19.877 12.6942C19.877 12.6942 21.1768 13.8636 21.0054 14.8018C20.834 15.7401 19.1413 15.9984 19.1413 15.9984C19.1413 19.7893 15.5213 19.5479 13.7145 19.1914C13.678 19.1842 13.6421 19.177 13.6072 19.1696C13.0665 19.0574 12.7134 18.9415 12.7134 18.9415V19.6539C12.7134 19.6539 12.6757 19.7732 12.5596 19.9412C12.5288 19.9859 12.4924 20.034 12.4497 20.0841C12.1107 20.4825 11.3742 21.0136 9.85648 21.0136C8.71304 21.1042 6.75591 20.9966 6.2371 19.9412V16.0725C4.40872 14.7059 3 12.8068 3 10.4204C3 8.43703 3.8277 6.59296 5.30106 5.19047C6.77443 3.78795 8.77271 3.00002 10.8564 3.00002C12.4476 2.9983 14.0198 3.3278 15.4631 3.96544C16.6005 4.42138 17.5963 5.14697 18.3557 6.07305C19.0491 7.04589 19.4335 8.18832 19.4627 9.36365C19.4691 9.63371 19.4652 9.88996 19.4616 10.1377ZM13.7373 10.9494C13.6592 11.0367 13.6185 11.0823 13.3735 11.0823C12.9866 11.0823 12.6087 10.9687 12.2891 10.7564C12.0648 10.9878 11.7896 11.1671 11.4843 11.2807C11.4454 11.2994 11.4097 11.3192 11.3765 11.3403C11.2034 11.4501 11.1009 11.592 10.996 11.7592C10.9782 11.7877 10.9603 11.8169 10.9419 11.8467C10.9157 11.8895 10.8884 11.9339 10.8594 11.9794C10.6677 12.2797 10.5664 12.6263 10.5668 12.9798V14.9709H8.5064C8.45454 14.5443 8.35713 14.1345 8.12105 13.7716C7.88503 13.4086 7.56836 13.1018 7.19437 12.8736C6.86979 12.7378 6.58957 12.5183 6.38398 12.2387C6.17844 11.9591 6.05534 11.6301 6.02811 11.2874C5.69027 10.9393 5.5023 10.4785 5.50295 9.99979C5.50034 9.58701 5.63956 9.18519 5.89851 8.85826C5.85085 8.69647 5.82788 8.52872 5.83033 8.36047C5.82968 7.958 5.96188 7.566 6.20742 7.24217L7.19437 6.56182C7.3458 6.23054 7.59249 5.94896 7.90475 5.75108C8.21697 5.55325 8.58139 5.44757 8.95398 5.44682C9.10791 5.44772 9.26118 5.46555 9.41096 5.49989C9.72793 5.2125 10.1351 5.03725 10.5668 5.00235L12.6638 5.14447C13.1265 5.2558 13.531 5.52877 13.8005 5.91142H13.9369L15.1485 6.324C15.4921 6.59201 15.7312 6.96635 15.8261 7.38484C16.2419 7.56049 16.5831 7.86975 16.7925 8.26096C17.002 8.65211 17.067 9.10144 16.9767 9.53369C16.8864 9.9659 16.6464 10.3549 16.2966 10.6355L15.0554 11.075C14.6647 11.0794 14.2818 10.9683 13.9574 10.7564C13.8402 10.8343 13.7825 10.8989 13.7373 10.9494ZM17.0163 12.7614C17.0163 13.1761 16.6801 13.5123 16.2655 13.5123C15.8508 13.5123 15.5146 13.1761 15.5146 12.7614C15.5146 12.3467 15.8508 12.0105 16.2655 12.0105C16.6801 12.0105 17.0163 12.3467 17.0163 12.7614ZM10.5087 16.0152V17.0164H8.5064V16.0152H10.5087ZM8.5064 18.0175V19.0187H10.5087V18.0175H8.5064Z" fill="#F8DECF"/>
<circle cx="16.25" cy="12.8" r="0.8" fill="black"/>
<path fill-rule="evenodd" clip-rule="evenodd" d="M12.8943 10.5447C13.2217 10.5447 13.5415 10.4555 13.8118 10.2889C14.0864 10.4552 14.4104 10.5424 14.741 10.5389L15.7912 10.1939C16.0871 9.97372 16.2903 9.66841 16.3667 9.32916C16.4431 8.98988 16.388 8.63721 16.2108 8.33018C16.0336 8.02315 15.7449 7.78036 15.3931 7.6425C15.3128 7.314 15.1104 7.02022 14.8197 6.80985L13.7945 6.48598H13.6791C13.4511 6.18564 13.1088 5.97141 12.7172 5.884L10.5194 5.77246C10.154 5.79987 9.80952 5.93742 9.54131 6.163C9.41458 6.13602 9.28485 6.12204 9.15465 6.12132C8.83937 6.1219 8.53101 6.20485 8.26682 6.36015C8.00262 6.51545 7.79386 6.73647 7.66574 6.99652L6.83064 7.53053C6.62285 7.78468 6.51098 8.09239 6.51153 8.40829C6.50948 8.54035 6.52892 8.672 6.56924 8.79899C6.35015 9.05564 6.23234 9.37101 6.23453 9.69501C6.234 10.0708 6.39303 10.4325 6.67889 10.7056C6.70196 10.9747 6.8061 11.2329 6.98004 11.4523C7.15398 11.6718 7.3911 11.8441 7.66574 11.9507C7.98218 12.1298 8.25013 12.3706 8.44986 12.6555C8.64961 12.9404 8.84157 12.4967 9.22304 11.9986L9.58757 11.4104L8.84157 10.7473L8.33685 11.2521C8.22655 11.3623 8.04777 11.3623 7.93748 11.2521C7.82721 11.1418 7.82721 10.963 7.93748 10.8527L8.52596 10.2642L8.34662 9.27796L7.54881 8.87904C7.40931 8.80929 7.35277 8.63967 7.42253 8.50017C7.49227 8.3607 7.66187 8.30414 7.80137 8.37389L8.58266 8.76454L9.56018 8.14251L9.25899 7.33939C9.20423 7.19337 9.27822 7.03061 9.42424 6.97583C9.57026 6.92107 9.73305 6.99506 9.7878 7.14107L10.109 7.9977H10.5041L10.6874 7.63106L10.419 7.00491C10.3576 6.86157 10.424 6.69556 10.5673 6.63413C10.7107 6.5727 10.8767 6.6391 10.9381 6.78244L11.1713 7.32654L12.1031 7.49594C12.1083 7.49106 12.1138 7.48634 12.1194 7.48182L12.6971 7.01974C12.8188 6.92231 12.9965 6.94205 13.094 7.06384C13.1914 7.18561 13.1716 7.36331 13.0499 7.46073L12.6343 7.7932L13.1226 8.42096L13.314 8.03811C13.3618 7.94244 13.4596 7.88201 13.5666 7.88201H14.2597C14.4157 7.88201 14.5421 8.00843 14.5421 8.16439C14.5421 8.32035 14.4157 8.44677 14.2597 8.44677H13.7411L13.6227 8.68358L14.2054 8.81305C14.228 8.81808 14.2498 8.82581 14.2705 8.83615L14.7325 9.06719C14.872 9.13694 14.9285 9.30654 14.8588 9.44603C14.7891 9.58553 14.6194 9.64206 14.4799 9.57231L14.049 9.35683L13.0432 9.13333C12.9791 9.11907 12.9219 9.08289 12.8816 9.03105L12.1392 8.07652L11.2177 7.90898C11.2003 7.92522 11.1806 7.93942 11.1588 7.95108L10.961 8.34675V8.57512H11.3717C11.4156 8.57512 11.4588 8.58534 11.498 8.60494L12.4222 9.06702C12.5616 9.13677 12.6182 9.30637 12.5484 9.44586C12.4787 9.58536 12.3091 9.64189 12.1696 9.57214L11.305 9.13988H10.961V9.66632C10.961 9.82228 10.8345 9.9487 10.6786 9.9487C10.5226 9.9487 10.3962 9.82228 10.3962 9.66632V8.56246H9.95218L8.91101 9.22501L9.09066 10.2131L9.97018 11.0024C10.2192 11.2515 10.2192 11.2515 10.2192 11.2515C10.4683 11.2515 10.9241 11.3221 11.0863 11.0864C11.2485 10.8506 11.6179 10.8231 11.8937 10.7004C12.0487 10.6469 12.0869 10.5748 12.1336 10.4865C12.1648 10.4276 12.1998 10.3615 12.2757 10.2889C12.3416 10.3295 12.3927 10.3656 12.437 10.3968C12.5744 10.4937 12.6467 10.5447 12.8943 10.5447Z" fill="#577BFE"/>
</svg>
