<svg width="24" height="24" viewBox="0 0 24 24" fill="none" xmlns="http://www.w3.org/2000/svg">
<path d="M9.25 13.5C9.25 14.605 8.355 15.5 7.25 15.5C6.145 15.5 5.25 14.605 5.25 13.5C5.25 12.395 6.145 11.5 7.25 11.5C8.355 11.5 9.25 12.395 9.25 13.5Z" fill="#F8DECF"/>
<path d="M7.25 16C5.83155 16 3 16.7147 3 18.1334V20H11.5V18.1334C11.5 16.7147 8.66845 16 7.25 16Z" fill="#577BFE"/>
<path d="M16.75 15.5C17.855 15.5 18.75 14.605 18.75 13.5C18.75 12.395 17.855 11.5 16.75 11.5C15.645 11.5 14.75 12.395 14.75 13.5C14.75 14.605 15.645 15.5 16.75 15.5Z" fill="#F8DECF"/>
<path d="M12 14.5C12.8288 14.5 13.5 13.8288 13.5 13C13.5 12.1712 12.8288 11.5 12 11.5C11.1712 11.5 10.5 12.1712 10.5 13C10.5 13.8288 11.1712 14.5 12 14.5Z" fill="#F8DECF"/>
<path d="M16.75 16C15.3316 16 12.5 16.7147 12.5 18.1334V20H21V18.1334C21 16.7147 18.1684 16 16.75 16Z" fill="#577BFE"/>
<path fill-rule="evenodd" clip-rule="evenodd" d="M12.0025 17.5V17.2728C12.0025 16.8258 12.2647 16.4444 12.6728 16.129C12.6959 16.1112 12.7193 16.0936 12.7432 16.0763C13.0913 15.8235 13.5334 15.615 14.005 15.4512C13.5786 15.2513 13.0797 15.0919 12.5208 15.029C12.3533 15.0102 12.1804 15 12.0025 15C11.8246 15 11.6517 15.0102 11.4842 15.029C10.9253 15.0919 10.4264 15.2513 10 15.4512C10.4717 15.615 10.9137 15.8235 11.2618 16.0763C11.2857 16.0936 11.3092 16.1112 11.3322 16.129C11.7403 16.4444 12.0025 16.8258 12.0025 17.2728V17.5Z" fill="#577BFE"/>
<path d="M7.75 8.75879L7.50879 8.75L7.41797 8.74707H7.41699C6.2076 8.70289 5.25 7.70925 5.25 6.49902C5.25006 5.33442 6.13526 4.37674 7.26953 4.26172L7.49902 4.25H9.08301C10.2796 4.25 11.25 5.22041 11.25 6.41699C11.2498 7.78096 10.348 8.60958 9.38477 9.11133C8.90544 9.36098 8.42322 9.5226 8.05957 9.62109C7.94253 9.65279 7.83736 9.67394 7.75 9.69336V8.75879Z" fill="white" stroke="black" stroke-width="0.5"/>
<circle cx="6.70001" cy="6.5" r="0.5" fill="black"/>
<circle cx="9.70001" cy="6.5" r="0.5" fill="black"/>
<circle cx="8.20001" cy="6.5" r="0.5" fill="black"/>
<path d="M15.6182 3.25H18.5C19.7426 3.25 20.75 4.25736 20.75 5.5C20.75 6.74263 19.7426 7.75 18.5 7.75H17.25V9.19922C17.1435 9.17706 17.0112 9.14775 16.8604 9.1084C16.4495 9.00125 15.9044 8.82652 15.3623 8.55469C14.2708 8.00725 13.2501 7.10243 13.25 5.61816C13.25 4.31033 14.3103 3.25 15.6182 3.25Z" fill="white" stroke="black" stroke-width="0.5"/>
<circle cx="15.5" cy="5.5" r="0.5" fill="black"/>
<circle cx="18.5" cy="5.5" r="0.5" fill="black"/>
<circle cx="17" cy="5.5" r="0.5" fill="black"/>
</svg>
