<svg width="24" height="24" viewBox="0 0 24 24" fill="none" xmlns="http://www.w3.org/2000/svg">
<path d="M7.99994 8.49971H6.99994V5.75655C5.65577 6.83288 4.6892 8.31665 4.25482 9.99287C3.77537 11.8433 3.97499 13.8048 4.81635 15.5212C5.6577 17.2374 7.08556 18.5958 8.84174 19.3503C10.4445 20.0388 12.224 20.1825 13.9091 19.7683C14.1772 19.7024 14.4573 19.8477 14.54 20.111C14.6225 20.3745 14.4765 20.6564 14.2089 20.7243C12.2952 21.209 10.2696 21.0521 8.4472 20.2692C6.47145 19.4205 4.86445 17.8925 3.91791 15.9616C2.97144 14.0308 2.7478 11.8245 3.28705 9.74287C3.77258 7.86901 4.84934 6.20878 6.34662 4.99971H3.49994V3.99971H7.99994V8.49971ZM9.78998 3.2751C11.7036 2.79049 13.7294 2.94744 15.5517 3.73018C17.5276 4.57896 19.1345 6.10782 20.081 8.03877C21.0274 9.96966 21.2512 12.1759 20.7119 14.2575C20.2264 16.131 19.1502 17.7907 17.6533 18.9997H20.4999V19.9997H15.9999V15.4997H16.9999V18.2419C18.3436 17.1656 19.3099 15.6824 19.7441 14.0065C20.2235 12.1561 20.0239 10.1946 19.1826 8.47823C18.3412 6.76207 16.9133 5.4035 15.1572 4.64912C13.5544 3.96064 11.7749 3.81685 10.0898 4.23116C9.82162 4.29709 9.54146 4.1519 9.45892 3.88838C9.37647 3.62501 9.52254 3.34304 9.78998 3.2751Z" fill="#577BFE"/>
<path d="M12.251 17.0088H10.25V16.5088H12.251V17.0088ZM12.251 16.0088H10.25V15.5088H12.251V16.0088ZM13.7403 8.09863C14.0869 8.17602 14.3899 8.36591 14.5918 8.63184H14.6944L15.6016 8.91895C15.859 9.10521 16.0383 9.3654 16.1094 9.65625C16.4209 9.77832 16.6771 9.99279 16.834 10.2646C16.9909 10.5365 17.0393 10.8491 16.9717 11.1494C16.904 11.4497 16.7239 11.7201 16.4619 11.915L15.5323 12.2207C15.2395 12.2238 14.9521 12.1463 14.709 11.999C14.4697 12.1464 14.1863 12.2256 13.8965 12.2256C13.6778 12.2255 13.6137 12.1804 13.4922 12.0947C13.453 12.0671 13.4079 12.0349 13.3496 11.999C13.2825 12.0633 13.2512 12.1217 13.2237 12.1738C13.1823 12.252 13.1481 12.3159 13.0108 12.3633C12.7668 12.4719 12.5615 12.6401 12.418 12.8486C12.2744 13.0573 12.198 13.2984 12.1983 13.5439V14.9277H11.4688V12.8799C11.4688 12.8085 11.4381 12.7408 11.3848 12.6934L10.5293 11.9316L10.3701 11.0566L11.292 10.4707H11.6846V11.4482C11.6848 11.5861 11.7976 11.6982 11.9356 11.6982C12.0733 11.698 12.1853 11.586 12.1856 11.4482V10.9814H12.4903L13.2549 11.3643C13.3783 11.426 13.529 11.3763 13.5908 11.2529C13.6526 11.1294 13.602 10.9788 13.4785 10.917L12.6602 10.5078C12.6256 10.4906 12.5875 10.4814 12.5489 10.4814H12.1856V10.2793L12.3604 9.92871C12.3795 9.91843 12.3968 9.90589 12.4121 9.8916L13.2285 10.04L13.8858 10.8857C13.9215 10.9315 13.9727 10.963 14.0293 10.9756L14.919 11.1738L15.3008 11.3643C15.4243 11.426 15.575 11.3764 15.6367 11.2529C15.6985 11.1294 15.648 10.9788 15.5244 10.917L15.1153 10.7129C15.097 10.7038 15.0775 10.6968 15.0576 10.6924L14.542 10.5771L14.6465 10.3682H15.1055C15.2435 10.3682 15.3563 10.2561 15.3565 10.1182C15.3565 9.98007 15.2436 9.86816 15.1055 9.86816H14.4922C14.3976 9.86818 14.311 9.92126 14.2686 10.0059L14.0987 10.3447L13.667 9.78906L14.0352 9.49512C14.1428 9.40891 14.1602 9.25131 14.0742 9.14355C13.988 9.03577 13.8305 9.01837 13.7227 9.10449L13.211 9.51367C13.206 9.51766 13.2009 9.52205 13.1963 9.52637L12.3711 9.37598L12.1651 8.89453C12.1107 8.76773 11.9638 8.70857 11.8369 8.7627C11.7102 8.81703 11.6511 8.964 11.7051 9.09082L11.9434 9.64551L11.7803 9.9707H11.4307L11.1465 9.21191C11.098 9.08262 10.9535 9.01695 10.8242 9.06543C10.6951 9.114 10.6293 9.25846 10.6778 9.3877L10.9444 10.0986L10.0791 10.6494L9.38772 10.3037C9.26422 10.242 9.11356 10.2916 9.05178 10.415C8.99002 10.5386 9.04057 10.6892 9.16409 10.751L9.87014 11.1035L10.0293 11.9775L9.50784 12.498C9.41028 12.5956 9.41044 12.7539 9.50784 12.8516C9.6055 12.9492 9.76369 12.9492 9.86135 12.8516L10.3086 12.4053L10.9688 12.9922V14.9277H10.2891C10.2502 14.6315 10.1386 14.3468 9.96194 14.0947C9.78514 13.8426 9.54769 13.6293 9.2676 13.4707C9.02443 13.3763 8.8142 13.2236 8.66018 13.0293C8.50619 12.835 8.41403 12.6063 8.39358 12.3682C8.14058 12.1264 7.99969 11.8062 8.00003 11.4736C7.99809 11.1867 8.10291 10.9069 8.2969 10.6797C8.26121 10.5673 8.24334 10.4509 8.24514 10.334C8.24466 10.0543 8.34436 9.78167 8.52835 9.55664L9.2676 9.08398C9.38104 8.85372 9.5659 8.65802 9.79983 8.52051C10.0337 8.38303 10.3068 8.30911 10.586 8.30859C10.7011 8.30925 10.8157 8.32189 10.9278 8.3457C11.1652 8.146 11.4705 8.02429 11.794 8L13.7403 8.09863Z" fill="#577BFE"/>
</svg>
