<svg width="24" height="24" viewBox="0 0 24 24" fill="none" xmlns="http://www.w3.org/2000/svg">
<path d="M9.68555 4.25H12.3145C13.646 4.25 14.7498 5.39713 14.75 6.84277C14.75 8.46916 13.6513 9.45688 12.4863 10.0518C11.9068 10.3477 11.3246 10.5387 10.8857 10.6553C10.7154 10.7005 10.5671 10.7333 10.4502 10.7578V9.43652H9.68555C8.35388 9.43652 7.25 8.28857 7.25 6.84277C7.25019 5.39713 8.35401 4.25 9.68555 4.25Z" fill="white" stroke="black" stroke-width="0.5"/>
<path d="M9.55556 13.8824C9.55556 14.9224 8.76 15.7647 7.77778 15.7647C6.79556 15.7647 6 14.9224 6 13.8824C6 12.8424 6.79556 12 7.77778 12C8.76 12 9.55556 12.8424 9.55556 13.8824Z" fill="#F8DECF"/>
<path d="M7.77778 16.2353C6.51693 16.2353 4 16.9079 4 18.2432V20H11.5556V18.2432C11.5556 16.9079 9.03862 16.2353 7.77778 16.2353Z" fill="#577BFE"/>
<path d="M16.2222 15.7647C17.2045 15.7647 18 14.9224 18 13.8824C18 12.8424 17.2045 12 16.2222 12C15.24 12 14.4445 12.8424 14.4445 13.8824C14.4445 14.9224 15.24 15.7647 16.2222 15.7647Z" fill="#F8DECF"/>
<path d="M16.2222 16.2353C14.9614 16.2353 12.4445 16.9079 12.4445 18.2432V20H20V18.2432C20 16.9079 17.4831 16.2353 16.2222 16.2353Z" fill="#577BFE"/>
<circle cx="9.5" cy="7" r="0.5" fill="black"/>
<circle cx="12.5" cy="7" r="0.5" fill="black"/>
<circle cx="11" cy="7" r="0.5" fill="black"/>
</svg>
