<svg width="24" height="24" viewBox="0 0 24 24" fill="none" xmlns="http://www.w3.org/2000/svg">
<path fill-rule="evenodd" clip-rule="evenodd" d="M17.625 7.875C17.0037 7.875 16.5 8.37866 16.5 9V9.75H18.75V9C18.75 8.37866 18.2463 7.875 17.625 7.875ZM18.75 10.5H16.5V16.6875L17.625 18.375L18.75 16.6875V10.5Z" fill="#577BFE"/>
<path fill-rule="evenodd" clip-rule="evenodd" d="M5.25 6.375V17.6247C5.25 18.246 5.75368 18.7497 6.375 18.7497H14.625C15.2463 18.7497 15.75 18.246 15.75 17.6247V6.375C15.75 5.75368 15.2463 5.25 14.625 5.25H6.375C5.75368 5.25 5.25 5.75368 5.25 6.375ZM10.5 8.625C10.5 8.41789 10.6679 8.25 10.875 8.25H13.875C14.0821 8.25 14.25 8.41789 14.25 8.625C14.25 8.83211 14.0821 9 13.875 9H10.875C10.6679 9 10.5 8.83211 10.5 8.625ZM10.875 9.75C10.6679 9.75 10.5 9.91789 10.5 10.125C10.5 10.3321 10.6679 10.5 10.875 10.5H13.875C14.0821 10.5 14.25 10.3321 14.25 10.125C14.25 9.91789 14.0821 9.75 13.875 9.75H10.875ZM10.5 13.5C10.5 13.2929 10.6679 13.125 10.875 13.125H13.875C14.0821 13.125 14.25 13.2929 14.25 13.5C14.25 13.7071 14.0821 13.875 13.875 13.875H10.875C10.6679 13.875 10.5 13.7071 10.5 13.5ZM10.875 14.625C10.6679 14.625 10.5 14.7929 10.5 15C10.5 15.2071 10.6679 15.375 10.875 15.375H13.875C14.0821 15.375 14.25 15.2071 14.25 15C14.25 14.7929 14.0821 14.625 13.875 14.625H10.875ZM7.5 13.5V14.625H8.625V13.5H7.5ZM7.125 12.75H9C9.20711 12.75 9.375 12.9179 9.375 13.125V15C9.375 15.2071 9.20711 15.375 9 15.375H7.125C6.91789 15.375 6.75 15.2071 6.75 15V13.125C6.75 12.9179 6.91789 12.75 7.125 12.75ZM9.64016 8.89016C9.7866 8.74372 9.7866 8.50628 9.64016 8.35984C9.49372 8.2134 9.25628 8.2134 9.10984 8.35984L7.875 9.59468L7.39016 9.10984C7.24372 8.9634 7.00628 8.9634 6.85984 9.10984C6.71339 9.25628 6.71339 9.49372 6.85984 9.64016L7.875 10.6553L9.64016 8.89016Z" fill="#577BFE"/>
</svg>
